Coordinates
version=1
nRows=27
nColumns=13
inDegrees=yes

Units are S.I. units (second, meters, Newtons, ...)
Angles are in degrees.

endheader
time	pelvis_tilt	pelvis_list	pelvis_rotation	pelvis_tx	pelvis_ty	pelvis_tz	hip_flexion_r	hip_adduction_r	hip_rotation_r	knee_angle_r	ankle_angle_r	subtalar_angle_r
      0.00000000	    -10.68567426	     -2.46680735	      9.12687373	     -0.64350302	      0.84090669	      0.09920851	     38.48371442	      2.70437224	    -11.67486961	     -9.66166135	      2.49294032	      0.49068370
      0.01000000	    -10.43962270	     -2.47708143	      8.90379050	     -0.62597187	      0.84137584	      0.10005828	     37.93089909	      3.08340736	    -10.82657764	    -10.78841372	      0.15244266	     -0.18574171
      0.02000000	    -10.29166072	     -2.61797498	      8.52284811	     -0.60849725	      0.84222836	      0.10129927	     37.43092986	      3.66651818	     -9.89034756	    -11.68619054	     -2.59462600	     -1.30387110
      0.03000000	    -10.15434368	     -2.85369368	      7.99617215	     -0.59115030	      0.84345422	      0.10304769	     37.03599655	      4.39017224	     -9.35375555	    -13.14483429	     -3.15529862	     -0.71648745
      0.04000000	     -9.97339029	     -3.17527856	      7.41525991	     -0.57403538	      0.84473579	      0.10495931	     36.82144791	      5.17973431	     -8.82824955	    -15.17257843	     -3.03871980	     -0.27721558
      0.05000000	     -9.69507912	     -3.63002163	      6.80571451	     -0.55716864	      0.84612080	      0.10667662	     36.63366642	      6.06088444	     -8.46281939	    -17.47346585	     -2.51790831	     -0.47084503
      0.06000000	     -9.33154771	     -4.11726566	      6.18639852	     -0.54082724	      0.84742104	      0.10817850	     36.39529578	      6.90716260	     -8.43217959	    -19.92358494	     -0.91405419	      0.15396816
      0.07000000	     -8.95224419	     -4.60430768	      5.46087923	     -0.52505170	      0.84861445	      0.10975992	     35.87139121	      7.97628623	     -7.77971263	    -21.72264330	      0.19863491	     -0.15839895
      0.08000000	     -8.61684423	     -5.06286594	      4.60741035	     -0.50964127	      0.84975977	      0.11114323	     35.20356911	      9.00066401	     -7.41133913	    -23.22704552	      1.87480182	      0.26020784
      0.09000000	     -8.42402202	     -5.62777557	      3.79171478	     -0.49499269	      0.85055793	      0.11241111	     34.45836811	     10.04145842	     -7.30961044	    -24.20460892	      3.41326062	      0.76319985
      0.10000000	     -8.31301934	     -6.19272054	      2.94062429	     -0.48076879	      0.85135539	      0.11377344	     33.47914555	     11.13901710	     -7.06054502	    -24.54674989	      4.89335422	      1.11304961
      0.11000000	     -8.27223881	     -6.71189089	      2.13625510	     -0.46683813	      0.85230993	      0.11520883	     32.39241601	     12.12819452	     -6.98206439	    -24.56562479	      6.35592653	      1.79316221
      0.12000000	     -8.35382754	     -7.13336912	      1.41222158	     -0.45318098	      0.85342993	      0.11680067	     31.31938705	     12.96038716	     -6.98604969	    -24.36918855	      7.76660716	      2.63044310
      0.13000000	     -8.62876265	     -7.38092684	      0.79576936	     -0.43980377	      0.85474842	      0.11857627	     30.31522240	     13.62309840	     -6.80274495	    -23.90506158	      8.83587446	      3.10021314
      0.14000000	     -9.07872623	     -7.40967647	      0.32005331	     -0.42659480	      0.85633895	      0.12050126	     29.41847733	     14.05555142	     -6.44079048	    -23.29713078	      9.62946992	      3.25044748
      0.15000000	     -9.61177687	     -7.22645753	     -0.03771603	     -0.41335135	      0.85823049	      0.12241999	     28.54906911	     14.27617515	     -5.85062409	    -22.59849963	     10.15490448	      3.00886574
      0.16000000	    -10.11049944	     -6.89157994	     -0.28904252	     -0.40003504	      0.86039099	      0.12417345	     27.61145358	     14.30154779	     -5.19136224	    -21.85123344	     10.55035861	      2.64643617
      0.17000000	    -10.44316919	     -6.49717363	     -0.47556399	     -0.38664138	      0.86290172	      0.12574826	     26.42194406	     14.22491790	     -4.53697870	    -20.97305797	     10.84520591	      2.31894912
      0.18000000	    -10.62254335	     -6.00953922	     -0.61378980	     -0.37327204	      0.86563563	      0.12695880	     25.05053608	     13.97684640	     -3.94148858	    -20.08047197	     11.20363782	      2.25685870
      0.19000000	    -10.68553354	     -5.41410486	     -0.72540391	     -0.35984049	      0.86848312	      0.12781677	     23.51432128	     13.54684334	     -3.39735195	    -19.08599091	     11.65354551	      2.36838665
      0.20000000	    -10.68208114	     -4.79561602	     -0.82889765	     -0.34634780	      0.87132116	      0.12837866	     21.82205632	     13.05464384	     -2.78910775	    -17.89225327	     12.02338754	      2.38677180
      0.21000000	    -10.63477263	     -4.23103305	     -0.91128839	     -0.33287766	      0.87403006	      0.12862193	     20.06054930	     12.58964520	     -2.15408016	    -16.61089859	     12.18456012	      2.15736144
      0.22000000	    -10.58199438	     -3.76486636	     -0.97915420	     -0.31941184	      0.87648504	      0.12856883	     18.29643245	     12.21270962	     -1.52781479	    -15.31466379	     12.11379406	      1.60345124
      0.23000000	    -10.56170411	     -3.37311411	     -1.03721887	     -0.30598542	      0.87854354	      0.12827249	     16.56744735	     11.89259675	     -0.82445906	    -14.03334168	     11.75567246	      0.86138734
      0.24000000	    -10.63095780	     -3.04026267	     -1.08751764	     -0.29263488	      0.88006271	      0.12777434	     14.96026032	     11.63997070	      0.09219755	    -12.74505852	     11.16989507	     -0.46817969
      0.25000000	    -10.76813450	     -2.77515209	     -1.15945409	     -0.27936512	      0.88104999	      0.12721237	     13.49823674	     11.44380332	      1.04907527	    -11.57637993	     10.57628345	     -1.71745810
      0.26000000	    -10.93027880	     -2.56318225	     -1.24958746	     -0.26614340	      0.88163255	      0.12657174	     12.17928595	     11.24031286	      1.57036532	    -10.57261556	     10.42326841	     -2.45278219
